<svg width="60" height="48" viewBox="0 0 60 48" fill="none" xmlns="http://www.w3.org/2000/svg">
<g clip-path="url(#clip0)">
<g clip-path="url(#clip1)">
<path d="M23.8203 44.4766C23.8984 45.3229 24.7188 46 25.6953 46H35.3047C36.2812 46 37.1016 45.3229 37.1797 44.4766L38 33H23L23.8203 44.4766Z" fill="#939393"/>
<path d="M32 12C32 10.875 31.125 10 30 10C28.875 10 28 10.875 28 12C28 13.125 28.875 14 30 14C31.125 14 32 13.125 32 12ZM45 21H42.0625C37.75 21 33.625 23 31 26.375V20.375C31.8125 20.75 32.6875 21 33.5625 21C36.5625 21 39 18.5625 39 15.5625C39 14.25 38.5625 13 37.6875 12C38.5625 11 39 9.75 39 8.4375C39 5.4375 36.5625 3 33.5625 3C32.25 3 31 3.4375 30 4.3125C29 3.4375 27.75 3 26.4375 3C23.4375 3 21 5.4375 21 8.4375C21 9.75 21.4375 11 22.3125 12C21.4375 13 21 14.25 21 15.5625C21 18.5625 23.4375 21 26.4375 21C27.3125 21 28.1875 20.75 29 20.375V26.375C26.3125 23 22.25 21 17.9375 21H15C14.4375 21 13.9375 21.5625 14 22.25C14.625 29.375 20.625 35 28 35H32C39.375 35 45.375 29.375 46 22.25C46.0625 21.5625 45.5625 21 45 21ZM29 33H28C22.125 33 17.0625 28.6875 16.125 23H17.9375C22.1875 23 26.125 25.1875 28.25 28.8125C29.125 30.25 29 31.375 29 33ZM30 16.5L29.1875 17.625C28.5625 18.5 27.5 19 26.4375 19C24.5625 19 23 17.4375 23 15.5625C23 14.4375 23.5 13.4375 24.375 12.8125L25.5 12L24.375 11.1875C23.5 10.5625 23 9.5625 23 8.4375C23 6.5625 24.5625 5 26.4375 5C27.5 5 28.5625 5.5 29.1875 6.375L30 7.5L30.8125 6.375C31.4375 5.5 32.5 5 33.5625 5C35.4375 5 37 6.5625 37 8.4375C37 9.5625 36.5 10.5625 35.625 11.1875L34.5 12L35.625 12.8125C36.5 13.4375 37 14.4375 37 15.5625C37 17.4375 35.4375 19 33.5625 19C32.5 19 31.4375 18.5 30.8125 17.625L30 16.5ZM32 33H31C31 31.375 30.875 30.25 31.75 28.8125C33.875 25.1875 37.8125 23 42.0625 23H43.875C42.9375 28.6875 37.875 33 32 33Z" fill="#939393"/>
</g>
</g>
<defs>
<clipPath id="clip0">
<rect width="60" height="48" fill="white"/>
</clipPath>
<clipPath id="clip1">
<rect width="60" height="48" fill="white"/>
</clipPath>
</defs>
</svg>
