<svg width="60" height="48" viewBox="0 0 60 48" fill="none" xmlns="http://www.w3.org/2000/svg">
<g clip-path="url(#clip0)">
<path d="M26.4844 27.75H18.5156C11.0938 27.75 5 33.8438 5 41.2656C5 42.75 6.25 44 7.73438 44H37.2656C38.75 44 40 42.75 40 41.2656C40 33.8438 33.9062 27.75 26.4844 27.75ZM37.2656 41.5H7.73438C7.57812 41.5 7.5 41.4219 7.5 41.2656C7.5 35.1719 12.4219 30.25 18.5156 30.25H26.4844C32.5781 30.25 37.5 35.1719 37.5 41.2656C37.5 41.4219 37.4219 41.5 37.2656 41.5ZM22.5 24C28.0469 24 32.5 19.5469 32.5 14C32.5 8.45312 28.0469 4 22.5 4C16.9531 4 12.5 8.45312 12.5 14C12.5 19.5469 16.9531 24 22.5 24ZM22.5 6.5C26.6406 6.5 30 9.85938 30 14C30 18.1406 26.6406 21.5 22.5 21.5C18.3594 21.5 15 18.1406 15 14C15 9.85938 18.3594 6.5 22.5 6.5ZM34.375 22.8281C35.7031 23.6094 37.1875 24 38.75 24C43.5938 24 47.5 20.0938 47.5 15.25C47.5 10.4062 43.5938 6.5 38.75 6.5C37.7344 6.5 36.7969 6.65625 35.8594 6.96875C35.1562 7.20312 34.8438 7.90625 35.0781 8.60938C35.3125 9.23438 36.0156 9.54688 36.6406 9.39062C37.3438 9.15625 38.0469 9 38.75 9C42.1875 9 45 11.8125 45 15.25C45 18.6875 42.1875 21.5 38.75 21.5C37.6562 21.5 36.5625 21.1875 35.625 20.6406C35 20.3281 34.2969 20.4844 33.9062 21.1094C33.5938 21.7344 33.75 22.5156 34.375 22.8281ZM43.3594 29H40C39.2969 29 38.75 29.5469 38.75 30.25C38.75 30.9531 39.2969 31.5 40 31.5H43.3594C48.3594 31.5 52.5 35.6406 52.5 40.6406C52.5 41.1094 52.1094 41.5 51.6406 41.5H43.75C43.0469 41.5 42.5 42.0469 42.5 42.75C42.5 43.4531 43.0469 44 43.75 44H51.6406C53.5156 44 55 42.5156 55 40.6406C55 34.2344 49.7656 29 43.3594 29Z" fill="#939393"/>
</g>
<defs>
<clipPath id="clip0">
<rect width="60" height="48" fill="white"/>
</clipPath>
</defs>
</svg>
